<svg xmlns="http://www.w3.org/2000/svg" viewBox="0 0 512 512"><g data-name="Building 15"><path d="M421.377 185.829H347.56v-71.584a9.451 9.451 0 0 0-9.45-9.45H173.894a9.449 9.449 0 0 0-9.45 9.45v71.584H90.627a9.45 9.45 0 0 0-9.45 9.45v45.454a9.449 9.449 0 0 0 9.45 9.45h3.887v147.572a9.449 9.449 0 0 0 9.45 9.45h304.078a9.451 9.451 0 0 0 9.45-9.45V250.18h3.881a9.452 9.452 0 0 0 9.45-9.45v-45.455a9.446 9.446 0 0 0-9.446-9.447zm-9.45 18.9v26.554H347.56V204.73zm-50.243 125.036v-18.9h21.735v18.9zm21.738 22.573v18.9h-21.735v-18.9zm-21.738-64.046v-18.9h21.735v18.9zM328.66 123.696v8.665H183.344v-8.666zM128.58 329.764v-18.9h21.736v18.9zm21.74 22.573v18.9h-21.736v-18.9zm-21.74-64.046v-18.9h21.736v18.9zm-28.503-83.563h64.37v26.554h-64.37zm83.267 183.573V151.26H328.66V388.3z"/><path d="M290.532 167.323h18.9v42.799h-18.9zM246.552 167.323h18.9v42.799h-18.9zM202.571 167.323h18.9v42.799h-18.9zM290.532 247.197h18.9v42.8h-18.9zM246.552 247.197h18.9v42.8h-18.9zM202.571 247.197h18.9v42.8h-18.9zM290.532 327.072h18.9v42.799h-18.9zM246.552 327.072h18.9v42.799h-18.9zM202.571 327.072h18.9v42.799h-18.9z"/></g></svg>