<svg xmlns="http://www.w3.org/2000/svg" viewBox="0 0 2048 2048" style="enable-background:new 0 0 2048 2048" xml:space="preserve"><style>.st35{fill:#542a1a}.st69{fill:#ea6726}</style><g id="Layer_20"><linearGradient id="SVGID_1_" gradientUnits="userSpaceOnUse" x1="280.28" y1="1024" x2="1767.72" y2="1024"><stop offset="0" style="stop-color:#fedc52"/><stop offset=".995" style="stop-color:#fcb117"/></linearGradient><circle cx="1024" cy="1024" r="743.72" style="fill:url(#SVGID_1_)"/><g style="opacity:.81"><path d="M540.23 770.15c-2.07 0-4.16-.21-6.27-.66-16.21-3.44-26.55-19.38-23.11-35.58 21.98-103.42 83.1-188.9 176.75-247.22 76.03-47.35 171.49-74.41 262.28-74.41.78 0 1.54 0 2.32.01 16.57.08 29.93 13.58 29.85 30.15-.08 16.57-13.56 29.89-30.15 29.85h-1.77c-130.25 0-337.77 72.7-380.58 274.11-3 14.09-15.46 23.75-29.32 23.75z" style="fill:#fff"/></g><path class="st35" d="M1331.11 875.54c-7.73 0-15.05-4.51-18.32-11.96-1.01-2.17-3.76-7.56-4.75-9.03-14.4-21.16-46.77-34.83-82.46-34.83-33.17 0-63.6 11.81-79.43 30.82-3.16 3.79-5.61 7.76-7.28 11.82-4.23 10.21-15.92 15.05-26.13 10.83-10.21-4.23-15.05-15.92-10.83-26.13 3.22-7.78 7.76-15.22 13.5-22.11 23.58-28.32 64.76-45.22 110.17-45.22 49.3 0 93.57 20.05 115.53 52.32 3.45 5.07 8.06 14.78 8.6 16.14 4.06 10.27-.98 21.89-11.25 25.95-2.42.95-4.9 1.4-7.35 1.4zm-18.6-12.66c.04.1.12.32.26.63-.09-.21-.18-.42-.26-.63zM927.79 875.54c-7.72 0-15.04-4.5-18.31-11.95-1.01-2.17-3.77-7.58-4.76-9.04-14.4-21.16-46.77-34.83-82.46-34.83-33.17 0-63.6 11.81-79.43 30.82-3.16 3.79-5.61 7.76-7.28 11.81-4.22 10.21-15.92 15.05-26.13 10.83-10.21-4.22-15.05-15.92-10.83-26.13 3.22-7.78 7.76-15.22 13.5-22.11 23.58-28.32 64.76-45.22 110.17-45.22 49.3 0 93.56 20.05 115.53 52.32 3.43 5.04 8.04 14.74 8.58 16.1 4.08 10.26-.94 21.89-11.2 25.97a19.8 19.8 0 0 1-7.38 1.43zm-18.59-12.62c.04.1.12.31.25.61-.09-.2-.17-.41-.25-.61z"/><circle class="st69" cx="653.03" cy="1099.35" r="120.64"/><circle class="st69" cx="1395.92" cy="1099.35" r="120.64"/><g><path class="st35" d="M1026.52 1439.13c-43.57 0-86.41-6.78-127.31-20.15-39.81-13.01-77.05-32-110.7-56.44-33.51-24.35-62.67-53.53-86.67-86.75-24.49-33.9-43.06-71.26-55.19-111.04-3.22-10.57 2.73-21.74 13.3-24.96 10.57-3.22 21.74 2.73 24.96 13.3 44.87 147.17 182.15 246.04 341.6 246.04 158.15 0 293.95-98.84 337.93-245.94 3.17-10.58 14.31-16.6 24.89-13.43 10.58 3.16 16.6 14.31 13.43 24.89-11.92 39.86-30.14 77.24-54.17 111.09-23.62 33.28-52.35 62.48-85.41 86.81-68.08 50.1-149.92 76.58-236.66 76.58z"/></g></g></svg>