<svg xmlns="http://www.w3.org/2000/svg" viewBox="0 0 512 512" style="enable-background:new 0 0 512 512" xml:space="preserve"><path style="fill:#fec76d" d="m494.2 447.39-12.877-12.879-25.03-25.026-17.468-17.468-63.791-63.788c-.923 2.153-2.235 4.181-3.989 5.934l-36.883 36.886a18.747 18.747 0 0 1-5.929 3.985L434.525 481.32l12.875 12.876c12.928 12.928 33.881 12.928 46.803 0 12.923-12.924 12.923-33.88-.003-46.806zm-14.551 32.262c-5.254 5.255-13.774 5.255-19.025 0-5.26-5.256-5.265-13.779-.011-19.035 5.26-5.254 13.78-5.254 19.039.011 5.253 5.244 5.253 13.767-.003 19.024z"/><path transform="rotate(134.999 381.789 381.751)" style="fill:#a67a4b" d="M348.692 368.407h66.189v26.686h-66.189z"/><path style="fill:#a67a4b" d="M371.053 307.256c-7.433-7.439-19.49-7.439-26.923 0l-36.882 36.874c-7.433 7.437-7.433 19.489 0 26.918 7.428 7.427 19.48 7.427 26.912 0l36.883-36.886c7.432-7.427 7.432-19.481.01-26.906z"/><path style="fill:#f4ac45" d="M479.55 479.741c-5.262 5.161-13.708 5.134-18.925-.09-4.604-4.6-5.183-11.702-1.731-16.927l-3.103-3.103-105.104-105.1-16.525 16.527a18.747 18.747 0 0 1-5.929 3.985L434.524 481.32l12.875 12.876c12.928 12.928 33.881 12.928 46.803 0a32.923 32.923 0 0 0 8.23-13.668 33.22 33.22 0 0 1-22.882-.787z"/><path style="fill:#996b42" d="m389.09 392.918-18.653-18.653-21.485 21.481 18.87 18.87 46.803-46.797-.217-.217zM355.43 349.351c-7.433 7.427-19.485 7.427-26.912 0-6.635-6.632-7.329-16.939-2.119-24.366l-19.15 19.146c-7.433 7.437-7.433 19.489 0 26.918 7.428 7.427 19.48 7.427 26.912 0l36.883-36.886a19.035 19.035 0 0 0 2.11-2.539l-17.724 17.727z"/><path style="fill:#e0e4e5" d="M298.256 298.245c-4.631 4.637-9.504 8.864-14.502 12.849l28.27 28.267 27.346-27.345-28.27-28.264c-3.987 4.992-8.215 9.868-12.844 14.493z"/><path style="fill:#cde3fd" d="M298.256 57.887c66.377 66.382 66.373 173.987 0 240.358-66.379 66.384-173.989 66.384-240.366 0-66.379-66.373-66.379-173.977 0-240.358 66.378-66.375 173.986-66.375 240.366 0z"/><path style="fill:#1dace1" d="M303.455 228.979c-6.603 16.285-16.509 31.546-29.718 44.754-52.838 52.836-138.493 52.836-191.324 0-52.84-52.837-52.84-138.486 0-191.324 52.831-52.838 138.486-52.838 191.324 0 33.024 33.024 45.405 78.867 37.149 121.503"/><path style="fill:#fff" d="M258.223 97.904c44.28 44.284 44.273 116.048.004 160.315-44.276 44.273-116.04 44.273-160.32 0-44.271-44.276-44.271-116.04.004-160.315 44.273-44.264 116.037-44.276 160.312 0z"/><path style="fill:#b9d9f9" d="M87.433 298.245c-66.378-66.373-66.378-173.977 0-240.358 29.428-29.426 66.961-45.795 105.411-49.13-48.279-4.188-98.004 12.182-134.953 49.13-66.379 66.382-66.379 173.987 0 240.358 36.95 36.952 86.674 53.324 134.953 49.137-38.45-3.335-75.984-19.706-105.411-49.137z"/><path style="fill:#e5f3f9" d="M127.45 258.219c-44.27-44.275-44.27-116.04.004-160.315 18.371-18.368 41.477-29.109 65.388-32.233-33.714-4.406-69.027 6.335-94.93 32.233-44.276 44.276-44.276 116.04-.004 160.315 25.906 25.903 61.22 36.642 94.932 32.235-23.911-3.125-47.017-13.864-65.39-32.235z"/><path style="fill:#91d37f" d="M238.408 173.784a89.423 89.423 0 0 0-2.235-50.321c-31.058-10.636-66.82-3.683-91.604 21.111-24.785 24.786-31.747 60.537-21.105 91.605 31.067 10.647 66.825 3.683 91.608-21.099a88.558 88.558 0 0 0 13.521-17.357"/><path style="fill:#84c075" d="M144.569 144.575c-24.785 24.786-31.747 60.537-21.105 91.605l112.709-112.715c-31.06-10.637-66.821-3.685-91.604 21.11z"/><path style="fill:#231f20" d="m499.933 441.659-37.907-37.906a8.105 8.105 0 0 0-11.463.001 8.104 8.104 0 0 0 .001 11.463l37.905 37.905c4.721 4.72 7.319 10.996 7.319 17.671 0 6.675-2.598 12.949-7.32 17.671-4.718 4.72-10.992 7.32-17.666 7.32-6.674 0-12.949-2.599-17.671-7.32l-73.847-73.845 35.342-35.338 18.469 18.468a8.105 8.105 0 0 0 11.463-.001 8.104 8.104 0 0 0-.001-11.463l-60.338-60.334c.333-1.708.505-3.461.506-5.24.001-7.249-2.818-14.063-7.938-19.183-5.126-5.131-11.944-7.956-19.196-7.956-6.793 0-13.203 2.479-18.199 7.007l-17.498-17.495c50.889-69.606 44.923-168.093-17.907-230.927C270.351 18.525 225.635.003 178.071.003c-47.562 0-92.279 18.522-125.914 52.155C18.523 85.79 0 130.508 0 178.069s18.524 92.277 52.158 125.908c33.634 33.637 78.352 52.163 125.914 52.163 38.286 0 74.723-12.012 105.026-34.238l17.483 17.481c-9.637 10.644-9.325 27.143.936 37.397 5.123 5.123 11.938 7.945 19.187 7.945 1.782 0 3.539-.173 5.251-.506l115.711 115.708c7.784 7.783 18.131 12.069 29.136 12.069 11.006 0 21.352-4.288 29.13-12.069 7.783-7.781 12.068-18.129 12.068-29.133 0-11.006-4.285-21.353-12.067-29.135zm-132.111-38.508-7.406-7.406 35.337-35.332 7.406 7.406-35.337 35.332zM63.621 292.513C33.049 261.943 16.212 221.3 16.212 178.07S33.049 94.193 63.621 63.618c30.572-30.571 71.219-47.406 114.451-47.406 43.233 0 83.879 16.836 114.452 47.406 58.471 58.474 62.755 150.917 12.874 214.378a8.04 8.04 0 0 0-.632.698c-3.446 4.316-6.743 8.11-10.021 11.543-.732.761-1.465 1.522-2.215 2.272l-.005.005c-.722.722-1.455 1.429-2.189 2.136-3.469 3.32-7.296 6.646-11.633 10.103-.281.224-.538.47-.784.726-28.378 22.331-63.179 34.447-99.845 34.447-43.234.001-83.88-16.838-114.453-47.413zm237.958 13.815c.765-.734 1.52-1.468 2.257-2.203.05-.05.102-.098.151-.148l.141-.144c.765-.766 1.528-1.553 2.292-2.351 1.8-1.87 3.546-3.771 5.247-5.699l16.236 16.233-15.882 15.879-16.232-16.228a181.73 181.73 0 0 0 5.79-5.339zm11.401 43.535 4.727-4.728c.015-.015.032-.027.048-.042l27.346-27.345.009-.01 4.754-4.753a10.854 10.854 0 0 1 7.727-3.202c2.919 0 5.663 1.138 7.728 3.204a10.844 10.844 0 0 1 3.193 7.721c0 1.388-.265 2.733-.757 3.988-.056.115-.121.224-.172.342a10.76 10.76 0 0 1-2.272 3.395l-36.88 36.882c-.241.241-.493.466-.75.681a10.855 10.855 0 0 1-2.632 1.583c-.124.053-.24.122-.361.182-1.253.49-2.597.753-3.983.753a10.857 10.857 0 0 1-7.725-3.198c-4.261-4.259-4.259-11.191 0-15.453zm39.532 14.297 23.494-23.496 8.286 8.284-35.342 35.337-8.281-8.281 11.843-11.844z"/><path style="fill:#231f20" d="M279.469 279.465c13.686-13.687 24.285-29.649 31.498-47.44a8.107 8.107 0 0 0-4.466-10.559 8.105 8.105 0 0 0-10.559 4.466c-6.394 15.77-15.794 29.923-27.938 42.069-24.024 24.023-55.963 37.253-89.933 37.253-33.971 0-65.907-13.229-89.928-37.252-24.024-24.023-37.256-55.96-37.256-89.929s13.231-65.906 37.257-89.93c24.021-24.023 55.957-37.254 89.927-37.254s65.908 13.23 89.931 37.254c29.925 29.925 42.98 72.627 34.923 114.23a8.106 8.106 0 0 0 6.418 9.499 8.1 8.1 0 0 0 9.499-6.418c9.081-46.899-5.639-95.038-39.375-128.776-27.086-27.085-63.096-42.003-101.396-42.003-38.302 0-74.309 14.916-101.391 42.003-27.087 27.085-42.005 63.095-42.005 101.395s14.919 74.308 42.004 101.394c27.083 27.084 63.09 42.001 101.392 42.001 38.302-.002 74.313-14.919 101.398-42.003z"/><path style="fill:#231f20" d="M178.072 56.595c-32.443 0-62.946 12.635-85.892 35.576-47.358 47.358-47.36 124.418-.003 171.78 22.946 22.942 53.451 35.579 85.892 35.579 32.443 0 62.946-12.636 85.89-35.579 47.358-47.355 47.356-124.415-.003-171.78-22.943-22.941-53.444-35.576-85.884-35.576zm74.424 195.892c-19.883 19.883-46.315 30.831-74.427 30.831s-54.544-10.95-74.428-30.83c-41.036-41.04-41.034-107.814.003-148.851 19.883-19.879 46.316-30.828 74.428-30.828 28.111 0 54.54 10.949 74.419 30.828 41.039 41.042 41.041 107.817.005 148.85zM470.136 491.698a21.419 21.419 0 0 0 15.245-6.315 21.428 21.428 0 0 0 6.317-15.248c0-5.762-2.243-11.177-6.31-15.238a21.428 21.428 0 0 0-15.259-6.327c-5.755 0-11.169 2.241-15.248 6.314a21.42 21.42 0 0 0-6.311 15.254 21.422 21.422 0 0 0 6.321 15.243 21.405 21.405 0 0 0 15.245 6.317zm-3.793-25.347a5.325 5.325 0 0 1 3.787-1.568c1.43 0 2.776.559 3.796 1.579a5.294 5.294 0 0 1 1.561 3.772 5.33 5.33 0 0 1-1.569 3.786 5.31 5.31 0 0 1-3.781 1.566 5.312 5.312 0 0 1-3.782-1.569 5.328 5.328 0 0 1-1.572-3.788 5.308 5.308 0 0 1 1.56-3.778z"/><path style="fill:#231f20" d="M243.799 120.734c-.045-.128-.102-.251-.153-.375-.075-.179-.149-.357-.236-.53-.062-.124-.131-.242-.199-.363a8.163 8.163 0 0 0-.293-.483 8.218 8.218 0 0 0-.24-.338 7.718 7.718 0 0 0-.624-.746 8.49 8.49 0 0 0-.407-.398 7.504 7.504 0 0 0-.299-.267 8.24 8.24 0 0 0-.472-.358c-.104-.073-.203-.15-.31-.219a8.45 8.45 0 0 0-.577-.332c-.092-.049-.179-.104-.273-.15a8.23 8.23 0 0 0-.917-.382 101.73 101.73 0 0 0-3.676-1.175c-.231-.069-.464-.131-.695-.199a98.615 98.615 0 0 0-3.179-.873c-.141-.036-.28-.069-.42-.104-26.763-6.742-54.551-1.868-77.084 13.174l-.37.249a96.144 96.144 0 0 0-3.462 2.442c-.094.069-.19.136-.284.206a98.895 98.895 0 0 0-3.487 2.725c-.212.173-.419.353-.63.529a96.917 96.917 0 0 0-2.677 2.312c-.289.258-.578.516-.865.778a99.883 99.883 0 0 0-3.132 2.985c-26.318 26.319-35.147 64.623-23.042 99.963.108.315.237.618.379.913.049.101.107.193.16.292.103.19.205.379.322.56.07.11.149.213.226.319.113.158.227.315.351.464.088.106.18.205.272.306a7.8 7.8 0 0 0 1.957 1.558c.122.069.243.139.369.202.17.085.346.16.523.233.126.053.252.109.382.156.034.012.065.029.099.04 10.479 3.592 21.213 5.342 31.824 5.341 25.174-.002 49.627-9.86 68.143-28.376a96.875 96.875 0 0 0 14.755-18.943 8.107 8.107 0 0 0-13.932-8.292 80.552 80.552 0 0 1-12.287 15.771c-18.67 18.672-44.593 26.753-70.073 22.492l92.55-92.556a80.934 80.934 0 0 1-1.28 32.56 8.108 8.108 0 0 0 5.929 9.812 8.108 8.108 0 0 0 9.812-5.929 97.208 97.208 0 0 0-2.438-54.89c-.011-.037-.027-.069-.04-.104zm-115.995 99.64c-.04-.241-.083-.482-.121-.723-.058-.372-.116-.744-.17-1.115a79.534 79.534 0 0 1-.193-1.457c-.045-.365-.093-.732-.134-1.097a86.955 86.955 0 0 1-.151-1.521c-.031-.343-.067-.685-.094-1.028a81.876 81.876 0 0 1-.112-1.716c-.016-.278-.038-.556-.052-.833a80.267 80.267 0 0 1-.081-2.497c-.004-.271 0-.543-.002-.814a89.86 89.86 0 0 1 .001-1.722c.005-.349.018-.697.028-1.046.014-.494.028-.988.051-1.481.017-.373.041-.746.064-1.119.028-.469.058-.937.095-1.405.029-.38.064-.76.098-1.14a79.56 79.56 0 0 1 .622-5.018c.075-.472.157-.944.239-1.415.062-.355.121-.709.188-1.064.098-.519.208-1.035.316-1.552.064-.304.122-.609.189-.91.178-.801.367-1.6.571-2.395.062-.243.132-.484.197-.726.15-.566.302-1.133.464-1.697.095-.331.2-.66.299-.99.143-.472.286-.946.439-1.415.113-.35.232-.698.35-1.046.151-.449.305-.896.465-1.341.126-.353.258-.706.389-1.057a80.238 80.238 0 0 1 1.925-4.682c.201-.447.41-.892.619-1.336.149-.318.296-.636.451-.951.239-.491.489-.977.737-1.462.136-.266.268-.533.406-.798.39-.739.791-1.474 1.205-2.204.077-.135.159-.268.237-.402.346-.601.697-1.199 1.059-1.792.163-.266.333-.529.499-.793.286-.457.574-.914.871-1.366.191-.292.389-.581.585-.871.284-.422.57-.841.862-1.258.208-.296.42-.59.632-.884a85.237 85.237 0 0 1 1.557-2.084c.309-.4.624-.797.94-1.192.225-.28.45-.561.68-.839a95.85 95.85 0 0 1 1.02-1.208c.223-.259.444-.521.67-.779.384-.437.777-.867 1.173-1.297.196-.213.387-.429.585-.64a79.282 79.282 0 0 1 1.828-1.89 80.609 80.609 0 0 1 3.266-3.079 80.493 80.493 0 0 1 2.495-2.154c.069-.057.136-.118.206-.174.951-.78 1.92-1.534 2.901-2.266.144-.107.289-.212.432-.319 13.711-10.098 30.229-15.558 47.603-15.558 4.425 0 8.816.357 13.148 1.065l-92.547 92.553z"/></svg>