<svg xmlns="http://www.w3.org/2000/svg" viewBox="0 0 2048 2048" style="enable-background:new 0 0 2048 2048" xml:space="preserve"><style>.st20{fill:#542a19}.st36{fill:#451716}.st73{fill:#7aa540}</style><g id="Layer_24"><linearGradient id="SVGID_1_" gradientUnits="userSpaceOnUse" x1="280.28" y1="1024" x2="1767.72" y2="1024"><stop offset="0" style="stop-color:#b2d347"/><stop offset=".995" style="stop-color:#8cbe3f"/></linearGradient><circle cx="1024" cy="1024" r="743.72" style="fill:url(#SVGID_1_)"/><path d="M952.04 442.28c-158.4-.8-367.2 87.84-411.84 297.87" style="opacity:.81;fill:none;stroke:#fff;stroke-width:60;stroke-linecap:round;stroke-miterlimit:10"/><path class="st73" d="M605.94 884.6c-10.42 0-20.08-.98-28.79-2.99-10.76-2.49-17.47-13.23-14.98-23.99 2.49-10.76 13.23-17.47 23.99-14.98 28.1 6.5 85.48-2.8 150.29-38.2 52.94-28.91 95.36-67.01 110.7-99.43 4.73-9.98 16.65-14.25 26.63-9.52s14.24 16.65 9.52 26.63c-19.06 40.27-66.8 84.16-127.68 117.42-53.01 28.96-107.5 45.06-149.68 45.06zM1437.48 884.6c-42.18 0-96.66-16.1-149.69-45.06-60.89-33.25-108.62-77.15-127.68-117.42-4.73-9.98-.47-21.91 9.52-26.63 9.99-4.73 21.91-.47 26.63 9.52 15.35 32.42 57.77 70.51 110.71 99.43 64.82 35.4 122.18 44.69 150.29 38.2 10.76-2.48 21.5 4.22 23.99 14.98 2.49 10.76-4.22 21.5-14.98 23.99-8.71 2.01-18.38 2.99-28.79 2.99z"/><g><ellipse class="st20" cx="772.93" cy="988.28" rx="62.77" ry="88.74"/><ellipse class="st20" cx="1269.55" cy="988.28" rx="62.77" ry="88.74"/></g><g><g style="opacity:.81"><path d="M540.23 770.15c-2.07 0-4.16-.21-6.27-.66-16.21-3.44-26.55-19.38-23.11-35.58 21.98-103.42 83.1-188.9 176.75-247.22 76.02-47.35 171.49-74.41 262.28-74.41.78 0 1.54 0 2.32.01 16.57.08 29.93 13.58 29.85 30.15-.08 16.52-13.5 29.85-30 29.85h-1.93c-130.25 0-337.77 72.7-380.58 274.11-2.99 14.09-15.45 23.75-29.31 23.75z" style="fill:#fff"/></g></g><g><path class="st36" d="M1235.02 1357.17c-3.63 0-7.31-.99-10.62-3.06-54.73-34.36-125.45-53.28-199.13-53.28-73.73 0-144.95 18.93-200.54 53.31-9.39 5.81-21.72 2.9-27.53-6.49-5.81-9.39-2.9-21.72 6.49-27.53 61.82-38.23 140.51-59.29 221.58-59.29 81.11 0 159.38 21.1 220.4 59.4 9.36 5.87 12.18 18.22 6.3 27.57-3.79 6.05-10.3 9.37-16.95 9.37z"/></g><g><path class="st36" d="M727.47 1443.91c-11.05 0-20-8.95-20-20s8.95-20 20-20c36.8 0 66.75-29.94 66.75-66.75s-29.94-66.75-66.75-66.75c-11.05 0-20-8.95-20-20s8.95-20 20-20c58.86 0 106.75 47.89 106.75 106.75-.01 58.87-47.89 106.75-106.75 106.75z"/></g><g><path class="st36" d="M1321.78 1443.91c-58.86 0-106.75-47.89-106.75-106.75s47.89-106.75 106.75-106.75c11.05 0 20 8.95 20 20s-8.95 20-20 20c-36.8 0-66.75 29.94-66.75 66.75s29.94 66.75 66.75 66.75c11.05 0 20 8.95 20 20s-8.95 20-20 20z"/></g></g></svg>