<?xml version="1.0" encoding="UTF-8"?>
<!DOCTYPE svg PUBLIC "-//W3C//DTD SVG 1.1//EN" "http://www.w3.org/Graphics/SVG/1.1/DTD/svg11.dtd">
<!-- Creator: CorelDRAW -->
<svg xmlns="http://www.w3.org/2000/svg" xml:space="preserve" width="2048px" height="2048px" style="shape-rendering:geometricPrecision; text-rendering:geometricPrecision; image-rendering:optimizeQuality; fill-rule:evenodd; clip-rule:evenodd"
viewBox="0 0 2048 2048"
 xmlns:xlink="http://www.w3.org/1999/xlink">
 <defs>
  <style type="text/css">
   <![CDATA[
    .fil2 {fill:none}
    .fil7 {fill:#00C853}
    .fil1 {fill:#0288D1}
    .fil4 {fill:#263238}
    .fil0 {fill:#29B6F6}
    .fil10 {fill:#303F9F}
    .fil8 {fill:#353E45}
    .fil5 {fill:#454C54}
    .fil6 {fill:#4FC3F7}
    .fil9 {fill:#97E1FC}
    .fil3 {fill:#FFFFFE;fill-rule:nonzero}
   ]]>
  </style>
   <clipPath id="id0">
    <path d="M1024 -0.0011811c565.541,0 1024,458.461 1024,1024 0,565.541 -458.461,1024 -1024,1024 -565.541,0 -1024,-458.461 -1024,-1024 0,-565.541 458.461,-1024 1024,-1024z"/>
   </clipPath>
 </defs>
 <g id="Layer_x0020_1">
  <metadata id="CorelCorpID_0Corel-Layer"/>
  <path class="fil0" d="M1024 -0.0011811c565.541,0 1024,458.461 1024,1024 0,565.541 -458.461,1024 -1024,1024 -565.541,0 -1024,-458.461 -1024,-1024 0,-565.541 458.461,-1024 1024,-1024z"/>
  <g style="clip-path:url(#id0)">
   <g id="_385677016">
    <g>
     <polygon id="_3795973281" class="fil1" points="1422.88,676.881 2558.76,1812.76 2560.15,1814.62 2561.36,1816.6 2562.38,1818.71 2563.19,1820.91 2563.79,1823.21 2564.15,1825.6 2564.28,1828.05 2564.28,2267.75 2564.15,2270.2 2563.79,2272.59 2563.19,2274.89 2562.38,2277.1 2561.36,2279.2 2560.15,2281.18 2558.76,2283.04 2557.2,2284.75 2555.49,2286.31 2553.64,2287.7 2551.65,2288.91 2549.55,2289.92 2547.34,2290.74 2545.04,2291.33 2542.66,2291.7 2540.21,2291.82 2183.32,2291.82 1047.44,1155.94 1404.33,1155.94 1406.78,1155.82 1409.16,1155.45 1411.46,1154.85 1413.67,1154.04 1415.77,1153.02 1417.76,1151.81 1419.61,1150.42 1421.32,1148.87 1422.88,1147.15 1424.27,1145.3 1425.48,1143.32 1426.5,1141.21 1427.31,1139.01 1427.91,1136.7 1428.27,1134.32 1428.4,1131.87 1428.4,692.164 1428.27,689.715 1427.91,687.332 1427.31,685.032 1426.5,682.823 1425.48,680.721 1424.27,678.736 "/>
     <polygon id="_379597448" class="fil1" points="1000.56,1155.94 2136.44,2291.82 1779.56,2291.82 1777.1,2291.7 1774.72,2291.33 1772.42,2290.74 1770.21,2289.93 1768.11,2288.91 1766.13,2287.7 1764.27,2286.31 1762.56,2284.75 626.678,1148.87 628.391,1150.43 630.245,1151.82 632.23,1153.03 634.333,1154.04 636.54,1154.86 638.842,1155.45 641.223,1155.82 643.674,1155.94 "/>
     <polygon id="_379598024" class="fil1" points="1047.44,1155.94 2183.32,2291.82 2183.32,2425.8 1047.44,1289.92 "/>
     <polygon id="_379598216" class="fil1" points="1584,1311.47 2719.88,2447.35 2719.88,2494.24 1584,1358.35 "/>
     <polygon id="_379597880" class="fil1" points="1152.08,1294.04 2287.96,2429.93 2288.87,2430.92 2289.68,2432.01 2290.39,2433.16 2290.98,2434.39 2291.45,2435.68 2291.8,2437.02 2292.01,2438.41 2292.09,2439.84 2292.09,2447.35 1156.21,1311.47 1156.21,1303.96 1156.13,1302.53 1155.92,1301.14 1155.57,1299.8 1155.1,1298.51 1154.5,1297.28 1153.8,1296.12 1152.99,1295.04 "/>
     <polygon id="_379597904" class="fil1" points="891.794,1358.35 2027.68,2494.24 1599.88,2494.24 463.999,1358.35 "/>
     <polygon id="_379598288" class="fil1" points="1156.21,1358.35 2292.09,2494.24 2292.09,2501.75 2292.01,2503.18 2291.8,2504.57 2291.45,2505.91 2290.98,2507.2 2290.39,2508.43 2289.68,2509.58 2288.87,2510.67 2287.96,2511.66 2286.96,2512.57 2285.88,2513.38 2284.72,2514.09 2283.5,2514.68 2282.21,2515.15 2280.87,2515.5 2279.47,2515.72 2278.04,2515.79 2041.72,2515.79 2040.29,2515.72 2038.9,2515.5 2037.55,2515.15 2036.26,2514.68 2035.04,2514.09 2033.88,2513.38 2032.8,2512.57 2031.8,2511.66 895.919,1375.78 896.917,1376.69 897.999,1377.5 899.156,1378.21 900.383,1378.8 901.672,1379.27 903.015,1379.62 904.405,1379.83 905.835,1379.91 1142.16,1379.91 1143.59,1379.83 1144.98,1379.62 1146.33,1379.27 1147.62,1378.8 1148.84,1378.21 1150,1377.5 1151.08,1376.69 1152.08,1375.78 1152.99,1374.78 1153.8,1373.7 1154.5,1372.54 1155.1,1371.32 1155.57,1370.03 1155.92,1368.69 1156.13,1367.3 1156.21,1365.87 "/>
     <polygon id="_379598072" class="fil1" points="1584,1358.35 2719.88,2494.24 2292.09,2494.24 1156.21,1358.35 "/>
    </g>
    <path id="_385677064" class="fil1" d="M1428.4 692.164l0 439.707c0,13.2284 -10.8425,24.0709 -24.0709,24.0709l-356.883 0 0 133.976 94.7198 0c7.72442,0 14.0421,6.3189 14.0421,14.041l0 7.50709 427.796 0 0 46.8886 -427.796 0 0 7.51064c0,7.72205 -6.3189,14.041 -14.0421,14.041l-236.328 0c-7.72323,0 -14.041,-6.31772 -14.041,-14.041l0 -7.51064 -427.796 0 0 -46.8886 427.796 0 0 -7.50709c0,-7.72323 6.31772,-14.041 14.041,-14.041l94.7209 0 0 -133.976 -356.882 0c-13.2284,0 -24.0697,-10.8307 -24.0697,-24.0709l0 -439.707c0,-13.239 10.8307,-24.0697 24.0697,-24.0697l760.653 0c13.2402,0 24.0709,10.8425 24.0709,24.0697z"/>
   </g>
  </g>
  <path class="fil2" d="M1024 -0.0011811c565.541,0 1024,458.461 1024,1024 0,565.541 -458.461,1024 -1024,1024 -565.541,0 -1024,-458.461 -1024,-1024 0,-565.541 458.461,-1024 1024,-1024z"/>
  <polygon class="fil3" points="1047.44,1139.12 1047.44,1289.92 1000.56,1289.92 1000.56,1139.12 "/>
  <path class="fil3" d="M463.999 1311.47l438.353 0 0 46.8874 -438.353 0 0 -46.8874zm683.639 0l436.363 0 0 46.8874 -436.363 0 0 -46.8874z"/>
  <path class="fil4" d="M643.674 668.095l760.653 0c13.2402,0 24.0709,10.8425 24.0709,24.0697l0 439.707c0,13.2284 -10.8425,24.0709 -24.0709,24.0709l-760.653 0c-13.2284,0 -24.0709,-10.8319 -24.0709,-24.0709l0 -439.707c0,-13.239 10.8319,-24.0697 24.0709,-24.0697z"/>
  <circle class="fil5" cx="984.034" cy="1123.78" r="11.6332"/>
  <circle class="fil6" cx="984.034" cy="1123.78" r="8.4691"/>
  <circle class="fil5" cx="1024" cy="1123.78" r="11.6332"/>
  <circle class="fil7" cx="1024" cy="1123.78" r="8.4691"/>
  <circle class="fil8" cx="1063.97" cy="1123.78" r="11.6332"/>
  <path class="fil9" d="M667.705 692.164l712.591 0c12.4028,0 22.5496,9.16772 22.5496,20.3492l0 361.904c0,11.1827 -10.1587,20.3492 -22.5496,20.3492l-712.591 0c-12.391,0 -22.5484,-9.15709 -22.5484,-20.3492l0 -361.904c0,-11.1921 10.1457,-20.3492 22.5484,-20.3492z"/>
  <path class="fil4" d="M905.835 1289.92l236.328 0c7.72323,0 14.0421,6.31772 14.0421,14.041l0 61.9052c0,7.72205 -6.3189,14.041 -14.0421,14.041l-236.328 0c-7.72205,0 -14.041,-6.31772 -14.041,-14.041l0 -61.9052c0,-7.72323 6.31772,-14.041 14.041,-14.041z"/>
  <polygon class="fil10" points="879.627,739.773 1024,868.24 1168.37,739.773 1193.52,768.025 1052.45,893.553 1193.52,1019.08 1168.37,1047.33 1024,918.866 879.625,1047.33 854.48,1019.08 995.552,893.553 854.48,768.025 "/>
 </g>
</svg>
