<svg xmlns="http://www.w3.org/2000/svg" viewBox="0 0 2048 2048" style="enable-background:new 0 0 2048 2048" xml:space="preserve"><style>.st20{fill:#542a19}.st57{fill:#f1a81f}</style><g id="Layer_22"><linearGradient id="SVGID_1_" gradientUnits="userSpaceOnUse" x1="280.28" y1="1023.78" x2="1767.72" y2="1023.78"><stop offset="0" style="stop-color:#fedc52"/><stop offset=".995" style="stop-color:#fcb117"/></linearGradient><circle cx="1024" cy="1023.78" r="743.72" style="fill:url(#SVGID_1_)"/><path d="M952.04 442.06c-158.4-.8-367.2 87.84-411.84 297.87" style="opacity:.81;fill:none;stroke:#fff;stroke-width:60;stroke-linecap:round;stroke-miterlimit:10"/><path class="st57" d="M605.94 884.38c-10.42 0-20.08-.98-28.79-2.99-10.76-2.49-17.47-13.23-14.98-23.99 2.49-10.76 13.23-17.47 23.99-14.98 28.1 6.49 85.48-2.8 150.29-38.2 52.94-28.91 95.36-67.01 110.7-99.43 4.73-9.98 16.65-14.24 26.63-9.52 9.98 4.73 14.25 16.65 9.52 26.63-19.06 40.27-66.8 84.16-127.68 117.42-53.01 28.96-107.5 45.06-149.68 45.06zM1437.48 884.38c-42.18 0-96.66-16.1-149.69-45.06-60.89-33.26-108.62-77.15-127.68-117.42-4.73-9.98-.46-21.91 9.52-26.63 9.98-4.73 21.91-.46 26.63 9.52 15.35 32.42 57.76 70.51 110.7 99.43 64.82 35.4 122.19 44.7 150.29 38.2 10.76-2.49 21.5 4.22 23.99 14.98 2.49 10.76-4.22 21.5-14.98 23.99-8.7 2.01-18.37 2.99-28.78 2.99z"/><g><ellipse class="st20" cx="772.93" cy="988.06" rx="62.77" ry="88.74"/><ellipse class="st20" cx="1269.55" cy="988.06" rx="62.77" ry="88.74"/></g><g><g style="opacity:.81"><path d="M540.23 769.93c-2.07 0-4.16-.21-6.27-.66-16.21-3.44-26.55-19.38-23.11-35.58 21.98-103.42 83.1-188.9 176.75-247.22 76.67-47.75 173.09-74.83 264.59-74.41 16.57.08 29.93 13.58 29.85 30.15-.08 16.52-13.5 29.85-30 29.85h-1.92c-130.25 0-337.77 72.7-380.58 274.11-2.99 14.1-15.45 23.76-29.31 23.76z" style="fill:#fff"/></g><path d="M1471.99 1176.5c-28.27-27.27-73.3-26.46-100.57 1.82l-210.8 218.58c1.4.77 2.79 1.55 4.19 2.34 54.18 30.83 82.18 65.68 99.99 94.56l209.02-216.72c27.26-28.29 26.45-73.32-1.83-100.58z" style="fill:#f1f2f2"/><path d="M1428.72 1221.36c-19.21-18.53-49.8-17.97-68.33 1.24l-179.65 186.28c33.4 21.53 55.38 44.45 71.02 65.59l178.2-184.77c18.52-19.22 17.97-49.81-1.24-68.34z" style="fill:#be1e2d"/><path d="M1265.91 1556.6c-7.05 0-13.89-3.74-17.53-10.35-1.32-2.39-2.67-4.91-4.09-7.54-15.8-29.35-37.44-69.54-99.26-104.71-111.97-63.7-236.94-58.42-311.61-55.26-8.16.34-15.87.67-22.86.88-11.04.32-20.25-8.36-20.58-19.4-.32-11.04 8.36-20.25 19.4-20.58 6.73-.2 14.32-.52 22.34-.86 78.96-3.34 211.12-8.93 333.08 60.46 71.81 40.86 97.62 88.79 114.7 120.51 1.35 2.51 2.65 4.92 3.9 7.2 5.33 9.67 1.81 21.84-7.86 27.17a19.939 19.939 0 0 1-9.63 2.48z" style="fill:#451716"/></g></g></svg>